<svg width="27" height="20" viewBox="0 0 27 20" fill="none" xmlns="http://www.w3.org/2000/svg">
<path d="M24.8236 0.278446L1.8824 0.278446C1.65013 0.279175 1.42246 0.343235 1.22389 0.463732C1.02532 0.584229 0.863373 0.756598 0.75548 0.962288C0.647589 1.16798 0.597836 1.3992 0.611578 1.63106C0.625322 1.86292 0.70204 2.08665 0.833475 2.27815L12.3041 18.8468C12.7795 19.5337 13.924 19.5337 14.4006 18.8468L25.8712 2.27815C26.004 2.08705 26.0819 1.86321 26.0963 1.63096C26.1108 1.39871 26.0614 1.16693 25.9534 0.96081C25.8454 0.754684 25.683 0.582094 25.4838 0.461792C25.2846 0.341492 25.0563 0.27808 24.8236 0.278446ZM13.353 15.8823L4.31416 2.82747L22.3918 2.82747L13.353 15.8823Z" fill="white"/>
</svg>
